<svg width="123" height="28" viewBox="0 0 123 28" fill="none" xmlns="http://www.w3.org/2000/svg">
<path d="M0.775391 17.3496V1.40625H7.61328V18.1406C7.61328 19.8164 7.91211 20.9824 8.50977 21.6387C9.10742 22.2832 9.92773 22.6055 10.9707 22.6055C12.002 22.6055 12.8164 22.2832 13.4141 21.6387C14.0117 20.9824 14.3105 19.8164 14.3105 18.1406V1.40625H21.0781V17.3496C21.0781 20.8301 20.1523 23.3848 18.3008 25.0137C16.4492 26.6309 14.0117 27.4395 10.9883 27.4395C7.90625 27.4395 5.43359 26.6309 3.57031 25.0137C1.70703 23.3848 0.775391 20.8301 0.775391 17.3496ZM24.1016 14.9414V13.4648C24.1016 9.22266 25.1621 6.08203 27.2832 4.04297C29.4043 1.99219 32.1289 0.966797 35.457 0.966797C38.7852 0.966797 41.5156 1.99219 43.6484 4.04297C45.793 6.08203 46.8652 9.22266 46.8652 13.4648V14.9414C46.8652 19.1836 45.793 22.3301 43.6484 24.3809C41.5156 26.4199 38.7852 27.4395 35.457 27.4395C32.1289 27.4395 29.4043 26.4199 27.2832 24.3809C25.1621 22.3301 24.1016 19.1836 24.1016 14.9414ZM31.2031 16.4883C31.2031 18.6562 31.5781 20.2207 32.3281 21.1816C33.0898 22.1426 34.1328 22.623 35.457 22.623C36.793 22.623 37.8418 22.1426 38.6035 21.1816C39.3652 20.2207 39.7461 18.6562 39.7461 16.4883V11.9531C39.7461 9.78516 39.3652 8.22656 38.6035 7.27734C37.8418 6.31641 36.793 5.83594 35.457 5.83594C34.1328 5.83594 33.0898 6.31641 32.3281 7.27734C31.5781 8.22656 31.2031 9.78516 31.2031 11.9531V16.4883ZM50.0645 27V1.40625H56.9199V21.7266H66.957V27H50.0645ZM69.1191 27V0.738281H75.7637V15.0645L80.5801 9.66797H87.998L75.7637 22.4648V27H69.1191ZM81.0723 27L75.6055 19.248L79.7363 14.6602L88.8242 27H81.0723ZM89.9316 20.5488V9.66797H96.5762V20.0391C96.5762 21 96.7637 21.668 97.1387 22.043C97.5254 22.4062 98.041 22.5879 98.6855 22.5879C99.2832 22.5879 99.8105 22.4062 100.268 22.043C100.736 21.668 101.088 21.2051 101.322 20.6543V9.66797H107.967V27H101.48L101.41 24.9082H101.357C100.924 25.6582 100.244 26.2617 99.3184 26.7188C98.3926 27.1758 97.2852 27.4043 95.9961 27.4043C94.2266 27.4043 92.7734 26.877 91.6367 25.8223C90.5 24.7559 89.9316 22.998 89.9316 20.5488ZM109.795 14.3789V9.66797H122.152V14.3789H109.795ZM112.291 21.4453V11.1094L112.396 10.7578V4.95703H118.848V20.3379C118.848 21.334 118.988 21.9902 119.27 22.3066C119.562 22.6113 119.99 22.7637 120.553 22.7637C120.846 22.7637 121.127 22.7402 121.396 22.6934C121.666 22.6348 121.924 22.5586 122.17 22.4648V26.9121C121.854 27.041 121.367 27.1582 120.711 27.2637C120.055 27.3809 119.264 27.4395 118.338 27.4395C116.439 27.4395 114.957 26.959 113.891 25.998C112.824 25.0254 112.291 23.5078 112.291 21.4453Z" fill="#ED6D25"/>
</svg>
