<svg width="24" height="24" viewBox="0 0 24 24" fill="none" xmlns="http://www.w3.org/2000/svg">
<path d="M12.4125 17.8781L17.1375 20.8781C17.7469 21.2625 18.4969 20.6906 18.3187 19.9875L16.95 14.6062C16.913 14.4571 16.9189 14.3005 16.967 14.1545C17.0151 14.0086 17.1034 13.8792 17.2219 13.7812L21.4594 10.2469C22.0125 9.78748 21.7312 8.85935 21.0094 8.81248L15.4781 8.45623C15.3272 8.44745 15.1821 8.39489 15.0606 8.30499C14.939 8.21508 14.8463 8.09172 14.7937 7.94998L12.7312 2.75623C12.6767 2.60614 12.5772 2.47648 12.4464 2.38486C12.3156 2.29324 12.1597 2.24409 12 2.24409C11.8403 2.24409 11.6844 2.29324 11.5536 2.38486C11.4228 2.47648 11.3233 2.60614 11.2687 2.75623L9.20625 7.94998C9.15368 8.09172 9.06096 8.21508 8.93943 8.30499C8.81789 8.39489 8.67279 8.44745 8.52187 8.45623L2.99062 8.81248C2.26875 8.85935 1.9875 9.78748 2.54062 10.2469L6.77812 13.7812C6.89656 13.8792 6.98492 14.0086 7.03302 14.1545C7.08112 14.3005 7.08701 14.4571 7.05 14.6062L5.78437 19.5937C5.56875 20.4375 6.46875 21.1219 7.19062 20.6625L11.5875 17.8781C11.7108 17.7997 11.8539 17.7581 12 17.7581C12.1461 17.7581 12.2892 17.7997 12.4125 17.8781Z" stroke="#FACF41" stroke-width="1.5" stroke-linecap="round" stroke-linejoin="round"/>
</svg>
